HIERARCHY
ROOT Hips
{
  OFFSET 0 0.240689 0
  CHANNELS 6 Xposition Yposition Zposition Zrotation Xrotation Yrotation
  JOINT Bip01_Spine0
  {
    OFFSET 0 -24.7459 49.7988
    CHANNELS 6 Xposition Yposition Zposition Zrotation Xrotation Yrotation
    JOINT Bip01_Pelvis
    {
      OFFSET 0 0 0
      CHANNELS 6 Xposition Yposition Zposition Zrotation Xrotation Yrotation
      JOINT Bip01_Spine0_Tail
      {
        OFFSET -6.47486 -3.86022 0
        CHANNELS 6 Xposition Yposition Zposition Zrotation Xrotation Yrotation
        JOINT Bip01_Spine0_Tail1
        {
          OFFSET 10.3837 -0.00825882 0
          CHANNELS 6 Xposition Yposition Zposition Zrotation Xrotation Yrotation
          JOINT Bip01_Spine0_Tail2
          {
            OFFSET 10.3837 -0.00826263 0
            CHANNELS 6 Xposition Yposition Zposition Zrotation Xrotation Yrotation
            JOINT Bip01_Spine0_Tail3
            {
              OFFSET 10.3837 -0.00825882 0
              CHANNELS 6 Xposition Yposition Zposition Zrotation Xrotation Yrotation
              JOINT Bip01_Spine0_Tail4
              {
                OFFSET 10.3837 -0.00826263 0
                CHANNELS 6 Xposition Yposition Zposition Zrotation Xrotation Yrotation
                End Site
                {
                  OFFSET 0 0 0
                }
              }
            }
          }
        }
      }
      JOINT Bip01_R_Thigh
      {
        OFFSET 0 -1.52588e-005 -8.75617
        CHANNELS 6 Xposition Yposition Zposition Zrotation Xrotation Yrotation
        JOINT Bip01_R_Calf
        {
          OFFSET 19.7638 0 0
          CHANNELS 6 Xposition Yposition Zposition Zrotation Xrotation Yrotation
          JOINT Bip01_R_Foot
          {
            OFFSET 18.6534 0 0
            CHANNELS 6 Xposition Yposition Zposition Zrotation Xrotation Yrotation
            JOINT Bip01_R_Toe0
            {
              OFFSET 5.09145 13.9567 0
              CHANNELS 6 Xposition Yposition Zposition Zrotation Xrotation Yrotation
              JOINT Bip01_R_Toe01
              {
                OFFSET 4.28803 0 0
                CHANNELS 6 Xposition Yposition Zposition Zrotation Xrotation Yrotation
                JOINT Bip01_R_Toe02
                {
                  OFFSET 3.85801 0 0
                  CHANNELS 6 Xposition Yposition Zposition Zrotation Xrotation Yrotation
                  End Site
                  {
                    OFFSET 0 0 0
                  }
                }
              }
            }
          }
        }
      }
      JOINT Bip01_L_Thigh
      {
        OFFSET 0 1.52588e-005 8.75617
        CHANNELS 6 Xposition Yposition Zposition Zrotation Xrotation Yrotation
        JOINT Bip01_L_Calf
        {
          OFFSET 19.7638 0 0
          CHANNELS 6 Xposition Yposition Zposition Zrotation Xrotation Yrotation
          JOINT Bip01_L_Foot
          {
            OFFSET 18.6534 0 0
            CHANNELS 6 Xposition Yposition Zposition Zrotation Xrotation Yrotation
            JOINT Bip01_L_Toe0
            {
              OFFSET 5.09144 13.9567 0
              CHANNELS 6 Xposition Yposition Zposition Zrotation Xrotation Yrotation
              JOINT Bip01_L_Toe01
              {
                OFFSET 4.28802 0 0
                CHANNELS 6 Xposition Yposition Zposition Zrotation Xrotation Yrotation
                JOINT Bip01_L_Toe02
                {
                  OFFSET 3.85801 0 0
                  CHANNELS 6 Xposition Yposition Zposition Zrotation Xrotation Yrotation
                  End Site
                  {
                    OFFSET 0 0 0
                  }
                }
              }
            }
          }
        }
      }
      JOINT Bip01_Spine
      {
        OFFSET 9.14835 -0.00640869 -1.1e-005
        CHANNELS 6 Xposition Yposition Zposition Zrotation Xrotation Yrotation
        JOINT Bip01_Spine1
        {
          OFFSET 8.04366 -0.00638199 0
          CHANNELS 6 Xposition Yposition Zposition Zrotation Xrotation Yrotation
          JOINT Bip01_Spine2
          {
            OFFSET 8.04367 -0.00639343 0
            CHANNELS 6 Xposition Yposition Zposition Zrotation Xrotation Yrotation
            JOINT Bip01_Spine3
            {
              OFFSET 8.04304 -0.00831222 0
              CHANNELS 6 Xposition Yposition Zposition Zrotation Xrotation Yrotation
              JOINT Bip01_Neck
              {
                OFFSET 10.6685 1.06813 0
                CHANNELS 6 Xposition Yposition Zposition Zrotation Xrotation Yrotation
                JOINT Bip01_R_Clavicle
                {
                  OFFSET -3.21661 -4.89635 -9.04802
                  CHANNELS 6 Xposition Yposition Zposition Zrotation Xrotation Yrotation
                  JOINT Bip01_R_UpperArm
                  {
                    OFFSET 19.0492 0 0
                    CHANNELS 6 Xposition Yposition Zposition Zrotation Xrotation Yrotation
                    JOINT Bip01_R_Forearm
                    {
                      OFFSET 10.3706 0 0
                      CHANNELS 6 Xposition Yposition Zposition Zrotation Xrotation Yrotation
                      JOINT Bip01_R_Hand
                      {
                        OFFSET 22.8632 0 0
                        CHANNELS 6 Xposition Yposition Zposition Zrotation Xrotation Yrotation
                        JOINT Bip01_R_Finger0
                        {
                          OFFSET 6.48259 0.103651 0.504496
                          CHANNELS 6 Xposition Yposition Zposition Zrotation Xrotation Yrotation
                          JOINT Bip01_R_Finger01
                          {
                            OFFSET 3.66847 0 0
                            CHANNELS 6 Xposition Yposition Zposition Zrotation Xrotation Yrotation
                            End Site
                            {
                              OFFSET 0 0 0
                            }
                          }
                        }
                      }
                    }
                  }
                }
                JOINT Bip01_L_Clavicle
                {
                  OFFSET -3.21661 -4.89641 9.04797
                  CHANNELS 6 Xposition Yposition Zposition Zrotation Xrotation Yrotation
                  JOINT Bip01_L_UpperArm
                  {
                    OFFSET 19.0492 0 0
                    CHANNELS 6 Xposition Yposition Zposition Zrotation Xrotation Yrotation
                    JOINT Bip01_L_Forearm
                    {
                      OFFSET 10.3706 0 0
                      CHANNELS 6 Xposition Yposition Zposition Zrotation Xrotation Yrotation
                      JOINT Bip01_L_Hand
                      {
                        OFFSET 22.8631 0 0
                        CHANNELS 6 Xposition Yposition Zposition Zrotation Xrotation Yrotation
                        JOINT Bip01_L_Finger0
                        {
                          OFFSET 6.48257 0.103655 -0.504492
                          CHANNELS 6 Xposition Yposition Zposition Zrotation Xrotation Yrotation
                          JOINT Bip01_L_Finger01
                          {
                            OFFSET 3.66844 0 0
                            CHANNELS 6 Xposition Yposition Zposition Zrotation Xrotation Yrotation
                            End Site
                            {
                              OFFSET 0 0 0
                            }
                          }
                        }
                      }
                    }
                  }
                }
                JOINT Bip01_Neck1
                {
                  OFFSET 7.52459 -0.00656509 0
                  CHANNELS 6 Xposition Yposition Zposition Zrotation Xrotation Yrotation
                  JOINT Bip01_Neck2
                  {
                    OFFSET 8.4783 -0.00588226 0
                    CHANNELS 6 Xposition Yposition Zposition Zrotation Xrotation Yrotation
                    JOINT Bip01_Head
                    {
                      OFFSET 8.41606 0 0
                      CHANNELS 6 Xposition Yposition Zposition Zrotation Xrotation Yrotation
                      JOINT EyesBlue
                      {
                        OFFSET 0 0 0
                        CHANNELS 6 Xposition Yposition Zposition Zrotation Xrotation Yrotation
                        JOINT EyesBlue_2
                        {
                          OFFSET 0 -0.500007 0
                          CHANNELS 6 Xposition Yposition Zposition Zrotation Xrotation Yrotation
                          End Site
                          {
                            OFFSET 0 0 0
                          }
                        }
                      }
                      JOINT Bip01_Head2_Eyeleds
                      {
                        OFFSET 6.52751 7.61746 2.2e-005
                        CHANNELS 6 Xposition Yposition Zposition Zrotation Xrotation Yrotation
                        End Site
                        {
                          OFFSET 0 0 0
                        }
                      }
                      JOINT Bip01_Head_Muzzle
                      {
                        OFFSET 2.88628 13.9448 3.88994
                        CHANNELS 6 Xposition Yposition Zposition Zrotation Xrotation Yrotation
                        End Site
                        {
                          OFFSET 0 0 0
                        }
                      }
                      JOINT Bip01_Head1_Jaw
                      {
                        OFFSET 0.271065 1.32405 0
                        CHANNELS 6 Xposition Yposition Zposition Zrotation Xrotation Yrotation
                        JOINT _Bip01_Head11_TungeControler
                        {
                          OFFSET 4.61616 5.82872 0
                          CHANNELS 6 Xposition Yposition Zposition Zrotation Xrotation Yrotation
                          JOINT _Bip01_Ponytail3_tunge
                          {
                            OFFSET 5.17785 2.98805 0
                            CHANNELS 6 Xposition Yposition Zposition Zrotation Xrotation Yrotation
                            JOINT Bip01_Ponytail31
                            {
                              OFFSET 5.57569 0 0
                              CHANNELS 6 Xposition Yposition Zposition Zrotation Xrotation Yrotation
                              JOINT Bip01_Ponytail32
                              {
                                OFFSET 2.93165 0 0
                                CHANNELS 6 Xposition Yposition Zposition Zrotation Xrotation Yrotation
                                JOINT Bip01_Ponytail3Nub
                                {
                                  OFFSET 3.30155 0 0
                                  CHANNELS 6 Xposition Yposition Zposition Zrotation Xrotation Yrotation
                                  End Site
                                  {
                                    OFFSET 0 0 0
                                  }
                                }
                              }
                            }
                          }
                        }
                        JOINT Bip01_Head_JawNub
                        {
                          OFFSET 15.5776 -0.000389099 0
                          CHANNELS 6 Xposition Yposition Zposition Zrotation Xrotation Yrotation
                          End Site
                          {
                            OFFSET 0 0 0
                          }
                        }
                      }
                      JOINT Bip01_Ponytail2
                      {
                        OFFSET 9.40334 1.03973 -6.51764
                        CHANNELS 6 Xposition Yposition Zposition Zrotation Xrotation Yrotation
                        JOINT Bip01_Ponytail21
                        {
                          OFFSET 2.77018 -0.00640106 1.33514e-005
                          CHANNELS 6 Xposition Yposition Zposition Zrotation Xrotation Yrotation
                          End Site
                          {
                            OFFSET 0 0 0
                          }
                        }
                      }
                      JOINT Bip01_Ponytail1
                      {
                        OFFSET 9.40368 1.03969 6.51768
                        CHANNELS 6 Xposition Yposition Zposition Zrotation Xrotation Yrotation
                        JOINT Bip01_Ponytail11
                        {
                          OFFSET 2.77018 -0.00640487 0
                          CHANNELS 6 Xposition Yposition Zposition Zrotation Xrotation Yrotation
                          End Site
                          {
                            OFFSET 0 0 0
                          }
                        }
                      }
                    }
                  }
                }
              }
            }
          }
        }
      }
    }
  }
}
MOTION
Frames:	4
Frame Time:	0.0333333
6.74268 -0.0729074 14.0855 -0 -90 -0 -0.257615 -28.7009 45.5063 90.388 -0.0994428 95.123 0 0 0 -90 0.000350804 -82.5398 -6.42039 -3.85966 -0.840778 143.103 -4.49492 5.95948 10.3785 -0.006637 2.1e-005 -34.7142 0.00117457 0.00222088 10.3791 -0.007091 4.15401e-012 -31.7622 -2.31603e-005 8.067e-005 10.3777 -0.006076 0.000106 -39.488 0.000583928 0.00117689 10.3823 -0.008032 5.2e-005 -11.5694 0.00054678 0.000716023 1.1e-005 -1.1e-005 -8.75617 -130.068 -4.04421 178.867 19.7638 -2e-006 -3e-006 -85.7628 4.32662e-005 0.00114726 18.6534 0 7.10543e-015 7.96735 -2.28938 -6.72291 5.09143 13.9567 -3.74751e-007 106.835 1.35969 -3.24469 4.288 1.77636e-015 3.55271e-015 25.2154 3.23967e-005 -4.97077e-006 3.85799 4.88498e-015 0 -45 -4.92232e-005 -3.7079e-005 -1.3e-005 1.1e-005 8.75617 -127.331 3.99269 -163.25 19.7638 1e-006 1.77636e-015 -86.0015 -4.10776e-005 -0.00121951 18.6534 1e-006 7.10543e-015 -0.473362 3.18554 -1.39892 5.09143 13.9567 8.3796e-008 96.9222 -5.51894 -1.17989 4.288 -1e-006 1.06581e-014 54.5012 3.89225e-006 3.51999e-008 3.85799 -1.15463e-013 -2e-006 -45 -1.51002e-005 -1.5005e-005 9.07041 -0.006263 1.18778 -2.65469 0.301268 -7.38566 8.04401 -0.006397 0.000267 2.24821 0.0860803 0.362771 8.0445 -0.006328 0.00045 5.68674 -1.17039 0.26653 8.04636 -0.007862 0.000499 -7.20116 0.0370214 0.0996524 10.6692 1.06815 -0.000548999 -22.515 -0.0410287 -0.299171 -2.43581 -5.34234 -9.03918 -158.463 -74.3398 128.832 19.0492 1e-006 -1.42109e-014 99.1292 -4.53178 -88.2198 10.3706 7.10543e-015 9.99999e-007 -75.3155 -3.59152e-005 -0.00020437 22.8631 1e-006 0 -48.8605 38.2686 21.1776 6.48257 0.103651 0.504498 -28.7862 -12.0942 -9.76238 3.66843 4.17888e-013 9.99999e-007 40.2228 -1.45741e-005 2.04454e-005 -2.34054 -5.3556 9.05636 -156.151 79.2194 -124.366 19.0492 -2e-006 -1e-006 91.6472 19.6697 102.363 10.3706 -1e-006 -5.15144e-014 -109.026 0.00012305 -0.00306352 22.8631 -7e-006 -4e-006 -19.3039 -20.3228 -5.54164 6.48257 0.103654 -0.504494 -48.1896 8.45845 13.2773 3.66843 1e-006 -1e-006 40.107 -2.08506e-005 1.63607e-005 7.52827 -0.006294 2.8e-005 -9.4601 0.0836935 0.0122938 8.47782 -0.006057 0.000159 -1.12847 0.0242631 0.0193338 8.41605 1.42109e-014 -2.66454e-015 -56.9562 18.9057 2.30116 -1e-006 3e-006 -5e-006 -23.1098 1.37701e-015 90 -1.95038e-006 -0.500002 -3.66262e-006 56.8965 90 33.1035 0 0 0 -91.851 3.05176e-005 -180 4.70091 13.8017 3.88993 -22.9891 1.37021e-015 90 0 0 0 -85.3358 1.52588e-005 -180 0 0 0 -120.289 -1.93185e-005 2.50307e-005 0 0 0 133.74 -3.98377e-005 -3.39437e-006 0 0 0 1.83152 2.01208e-006 -1.16942e-006 0 0 0 -17.65 7.75419e-006 1.04783e-005 0 0 0 -26.1943 1.8539e-005 1.11139e-005 15.5776 -0.000396 -8.0002e-006 1.59028e-015 3.97569e-016 -3.18055e-015 9.40486 1.0403 -6.51575 27.3789 -54.0297 73.3296 2.76725 -0.00562601 0.001508 37.5956 17.2382 8.9368 9.40531 1.04026 6.51577 27.3778 54.0298 -73.3289 2.7697 -0.004787 -0.001607 -1.66802 -11.1301 -13.8989 
7.08707 -0.0729074 14.805 -0 -90 -0 -0.362607 -28.7009 45.5897 90.5471 -0.138622 95.9152 0 0 0 -90 0.00020755 -82.9898 -6.42675 -3.85966 -0.790356 143.039 -4.22814 5.59574 10.3785 -0.006637 2.1e-005 -33.5184 0.0012207 0.00219591 10.3791 -0.007091 6.34426e-012 -31.9713 -2.34712e-005 8.05755e-005 10.3777 -0.006076 0.000106 -38.9171 0.000595628 0.00117102 10.3823 -0.008032 5.2e-005 -12.509 0.000535013 0.000724889 1.1e-005 -1.1e-005 -8.75617 -122.585 -0.1762 176.936 19.7638 -2e-006 -3e-006 -89.7567 4.19765e-006 0.00114755 18.6534 7.10543e-015 7.10543e-015 21.5511 -2.15334 -2.64111 5.09143 13.9567 -3.03353e-007 100.104 2.28531 -1.6756 4.288 -3.55271e-015 -7.10543e-015 20.0608 -3.37718e-006 -8.86544e-006 3.85799 5.32907e-015 -7.10543e-015 -45 -2.27092e-005 -9.03021e-006 -1.3e-005 1.1e-005 8.75617 -128.573 3.46076 -163.029 19.7638 1e-006 7.10543e-015 -85.164 -5.88863e-005 -0.00121879 18.6534 1e-006 1.42109e-014 -0.978911 3.27214 -1.10788 5.09143 13.9567 8.7607e-008 96.7246 -5.7623 -1.44453 4.288 -1e-006 -3.55271e-015 53.7219 4.69503e-006 -4.01843e-008 3.85799 -1.27898e-013 -2e-006 -45 -1.5719e-005 -1.5534e-005 9.07941 -0.006263 1.11651 -2.81559 0.329312 -6.97749 8.04401 -0.006397 0.000267 2.44152 0.042904 0.179477 8.0445 -0.006328 0.00045 5.89669 -0.432612 0.131102 8.04636 -0.007862 0.000499 -7.00172 0.0137096 0.0364787 10.6692 1.06815 -0.000549003 -22.2838 -0.0144567 -0.106567 -2.42687 -5.33689 -9.04482 -158.092 -74.1494 129.58 19.0492 1e-006 -1.77636e-014 101.611 -4.61414 -88.9613 10.3706 -7.10543e-015 9.99999e-007 -78.6819 -2.37812e-005 -0.000205479 22.8631 1e-006 0 -45.9718 39.0778 19.4909 6.48257 0.103651 0.504498 -28.7611 -12.0985 -9.75714 3.66843 4.44978e-013 9.99999e-007 40.2695 -1.56823e-005 2.11147e-005 -2.39267 -5.34162 9.05088 -157.279 78.9138 -123.99 19.0492 -2e-006 -1e-006 89.6234 18.0725 103.617 10.3706 -1e-006 -2.04281e-014 -111.179 0.000238482 -0.00305775 22.8631 -7e-006 -4e-006 -18.3032 -18.6991 -6.7466 6.48257 0.103654 -0.504494 -46.5969 8.64325 13.0031 3.66843 1e-006 -1e-006 40.107 -1.96695e-005 1.51191e-005 7.52827 -0.006294 2.8e-005 -8.12968 0.0836844 0.0122528 8.47782 -0.006057 0.000159 -0.368954 0.0245922 0.00737654 8.41605 2.13163e-014 4.44089e-015 -59.1921 5.46016 0.728296 -1e-006 3e-006 -5e-006 -23.1098 1.37701e-015 90 -1.92049e-006 -0.500002 -3.67156e-006 28.7644 90 61.2356 0 0 0 -98.5195 7.62939e-005 -180 4.85212 13.7897 3.88993 -22.989 1.37021e-015 90 0 0 0 -85.3358 3.05176e-005 -180 0 0 0 -120.289 -1.94335e-005 3.03989e-005 0 0 0 133.74 -8.98441e-005 -1.21212e-006 0 0 0 1.83152 2.41804e-005 -2.8344e-006 0 0 0 -17.65 3.75037e-005 1.95439e-005 0 0 0 -26.1943 1.98436e-005 1.05589e-005 15.5776 -0.000396 -8.00024e-006 1.59028e-015 1.98785e-016 7.95139e-016 9.40486 1.0403 -6.51575 30.8399 -54.1743 77.5882 2.76725 -0.005626 0.001508 2.27912 12.2889 19.4335 9.40531 1.04026 6.51577 30.8388 54.1741 -77.5872 2.7693 -0.004787 -0.001607 -5.36063 -12.3952 -15.4244 
7.43146 -0.0729074 15.5244 -0 -90 -0 -0.414746 -28.7009 45.6053 90.6264 -0.155479 96.601 0 0 0 -90 0.000481985 -83.5348 -6.43393 -3.85966 -0.72918 142.99 -3.90162 5.15752 10.3785 -0.006637 2.1e-005 -32.155 0.00127264 0.00216625 10.3791 -0.007091 7.79288e-012 -32.203 -2.38047e-005 8.04738e-005 10.3777 -0.006076 0.000106 -38.2915 0.000608366 0.00116444 10.3823 -0.008032 5.2e-005 -13.5393 0.000521905 0.00073439 1.1e-005 -1.1e-005 -8.75617 -115.917 2.78017 174.663 19.7638 -2e-006 -3e-006 -92.9024 -3.97318e-005 0.00114716 18.6534 7.10543e-015 7.10543e-015 32.6822 -1.2971 0.928074 5.09143 13.9567 -2.01806e-007 93.6281 3.01016 -0.0908783 4.288 -3.55271e-015 -3.55271e-015 15.1207 -1.65901e-005 -1.16726e-005 3.85799 5.32907e-015 0 -45 -1.21232e-005 2.45704e-006 -1.3e-005 1.1e-005 8.75617 -129.933 2.88656 -162.827 19.7638 1e-006 5.32907e-015 -84.4889 -4.6032e-005 -0.00122064 18.6534 1e-006 1.42109e-014 -1.02094 3.23707 -0.784717 5.09143 13.9567 9.06926e-008 96.249 -6.09539 -1.82459 4.288 -1e-006 -1.77636e-015 52.612 5.72938e-006 -1.496e-007 3.85799 -1.45661e-013 -2e-006 -45 -1.65283e-005 -1.62054e-005 9.08955 -0.006263 1.03008 -3.00546 0.339111 -6.45377 8.04401 -0.006397 0.000267 2.65057 -1.41176e-006 -1.72541e-005 8.0445 -0.006328 0.00045 6.12399 0.00211419 -5.03101e-005 8.04636 -0.007862 0.000499 -6.97124 0.00188101 0.00356127 10.6692 1.06815 -0.000549003 -22.0556 -0.000494682 -0.00573111 -2.43225 -5.32944 -9.04776 -158.012 -74.052 129.963 19.0492 1e-006 -3.55271e-015 102.961 -4.92013 -90.1589 10.3706 -2.4869e-014 9.99999e-007 -82.4378 -1.02797e-005 -0.000205884 22.8631 1e-006 7.10542e-015 -42.6398 38.8433 17.8212 6.48257 0.103651 0.504498 -28.7527 -12.0997 -9.75568 3.66843 4.32987e-013 9.99999e-007 40.2921 -1.66828e-005 2.18258e-005 -2.42989 -5.32969 9.04806 -157.954 78.529 -124.111 19.0492 -2e-006 -1e-006 88.8204 16.2923 104.303 10.3706 -1e-006 -1.42109e-014 -112.536 0.000311011 -0.00305164 22.8631 -7e-006 -4e-006 -17.3133 -17.786 -7.52249 6.48257 0.103654 -0.504494 -44.8983 8.93089 12.7247 3.66843 1e-006 -1e-006 40.107 -1.82323e-005 1.37537e-005 7.52827 -0.006294 2.79999e-005 -5.86869 0.0839854 0.0100842 8.47782 -0.006057 0.000159 0.783631 0.024652 0.000778737 8.41605 2.13163e-014 0 -63.2552 -0.995474 -0.0535833 -1e-006 3e-006 -5e-006 -23.1098 1.37701e-015 90 -1.9054e-006 -0.500002 -3.68302e-006 -4.19483e-008 90 90 0 0 0 -105.188 -7.01671e-015 -180 5.00334 13.7778 3.88993 -22.989 1.37021e-015 90 0 0 0 -85.3358 -1.52588e-005 -180 0 0 0 -120.289 2.18273e-006 -3.13647e-006 0 0 0 133.74 1.4257e-005 2.53401e-007 0 0 0 1.83152 -8.31124e-006 4.47912e-007 0 0 0 -17.65 -2.95032e-006 -1.72707e-006 0 0 0 -26.1943 -1.80986e-006 -1.09368e-006 15.5776 -0.000396 -7.99997e-006 -0 -2.48481e-017 -0 9.40486 1.0403 -6.51575 34.3907 -54.1141 81.9487 2.76725 -0.005626 0.001508 -15.0243 8.89444 23.5268 9.40531 1.04026 6.51577 34.3884 54.1139 -81.9464 2.76896 -0.004787 -0.001607 -8.55924 -13.7096 -17.0384 
7.77583 -0.0729074 16.2438 -0 -90 -0 -0.423362 -28.7009 45.5644 90.6401 -0.155615 97.1994 0 0 0 -90 0.0011381 -84.1591 -6.44145 -3.85966 -0.659057 142.954 -3.5262 4.65817 10.3785 -0.006637 2.1e-005 -30.6531 0.00132899 0.00213216 10.3791 -0.007091 8.47233e-012 -32.4462 -2.41468e-005 8.03691e-005 10.3777 -0.006076 0.000106 -37.6203 0.000621947 0.00115724 10.3823 -0.008032 5.2e-005 -14.645 0.000507626 0.000744324 1.1e-005 -1.1e-005 -8.75617 -111.139 4.3572 172.427 19.7638 -2e-006 -3e-006 -94.3311 -4.24279e-005 0.00114795 18.6534 -7.10543e-015 7.10543e-015 38.9247 -0.358628 3.4107 5.09143 13.9567 -1.33447e-007 90.0122 3.36412 0.867293 4.288 -3.55271e-015 0 12.3989 -1.8461e-005 -1.29589e-005 3.85799 -1.06581e-014 -3.55271e-015 -45 -1.01317e-005 4.83666e-006 -1.3e-005 1.1e-005 8.75617 -131.369 2.29134 -162.655 19.7638 1e-006 3.55271e-015 -83.8817 -5.89416e-005 -0.00122009 18.6534 1e-006 1.42109e-014 -0.712486 3.09879 -0.428504 5.09143 13.9567 9.29468e-008 95.5245 -6.50712 -2.30487 4.288 -1e-006 -1.59872e-014 51.2423 6.94954e-006 -2.91694e-007 3.85799 -1.77636e-013 -2e-006 -45 -1.74902e-005 -1.69834e-005 9.10017 -0.006263 0.931062 -3.21679 0.32879 -5.83128 8.04401 -0.006397 0.000267 2.82632 -1.34333e-006 -1.72557e-005 8.0445 -0.006328 0.00045 6.29971 0.10783 -0.001766 8.04636 -0.007862 0.000499 -7.10611 0.00104867 0.00140627 10.6692 1.06815 -0.000549003 -21.864 0.000884258 0.00181069 -2.44895 -5.32142 -9.04794 -158.18 -74.0408 129.998 19.0492 1e-006 -1.59872e-014 103.316 -5.31558 -91.6705 10.3706 -5.50671e-014 9.99999e-007 -86.4163 3.88845e-006 -0.000205146 22.8631 1e-006 1.42108e-014 -39.0591 37.6824 16.2624 6.48257 0.103651 0.504498 -28.7524 -12.0998 -9.75559 3.66843 4.60077e-013 9.99999e-007 40.2955 -1.74314e-005 2.242e-005 -2.44877 -5.32137 9.04791 -158.177 78.0742 -124.684 19.0492 -2e-006 -1e-006 88.9948 14.3969 104.602 10.3706 -1e-006 -2.30926e-014 -113.108 0.000341175 -0.00304794 22.8631 -7e-006 -4e-006 -16.4279 -17.5317 -7.94708 6.48257 0.103654 -0.504494 -43.1244 9.31537 12.4423 3.66843 1e-006 -1e-006 40.107 -1.68594e-005 1.24691e-005 7.52827 -0.006294 2.79999e-005 -3.16802 0.0843535 0.00636139 8.47782 -0.006057 0.000159 2.09161 0.0246482 -0.00019671 8.41605 -7.10543e-015 -2.66454e-015 -68.1158 -2.82679 -0.248232 -1e-006 3e-006 -5e-006 -23.1098 1.37701e-015 90 -1.90194e-006 -0.500002 -3.69753e-006 -34.9348 90 124.935 0 0 0 -111.857 7.01671e-015 -180 5.15455 13.7659 3.88993 -22.989 1.37021e-015 90 0 0 0 -85.3358 -3.05176e-005 -180 0 0 0 -120.289 8.46365e-006 -1.30687e-005 0 0 0 133.74 7.24686e-005 5.99863e-007 0 0 0 1.83152 -3.49594e-005 2.29779e-006 0 0 0 -17.65 -2.53454e-005 -1.11877e-005 0 0 0 -26.1943 -7.89763e-006 -4.33297e-006 15.5776 -0.000396 -7.9999e-006 1.59028e-015 1.98785e-016 -3.97569e-016 9.40486 1.0403 -6.51575 37.9049 -53.9016 86.2716 2.76725 -0.005626 0.001508 -22.0333 8.57644 25.2363 9.40531 1.04026 6.51577 37.9031 53.9023 -86.2696 2.7686 -0.004787 -0.001607 -11.9488 -14.8865 -18.7468 
